<?xml version="1.0" encoding="iso-8859-1"?>
<!-- Generator: Adobe Illustrator 17.1.0, SVG Export Plug-In . SVG Version: 6.00 Build 0)  -->
<!DOCTYPE svg PUBLIC "-//W3C//DTD SVG 1.1//EN" "http://www.w3.org/Graphics/SVG/1.1/DTD/svg11.dtd">
<svg version="1.1" id="Capa_1" xmlns="http://www.w3.org/2000/svg" xmlns:xlink="http://www.w3.org/1999/xlink" x="0px" y="0px"
	 viewBox="0 0 492.105 492.105" style="enable-background:new 0 0 492.105 492.105;" xml:space="preserve">
<path d="M462.562,118.223c-22.712-29.512-53.709-52.366-92.133-67.928c-36.778-14.896-78.625-22.448-124.376-22.448
	s-87.598,7.553-124.376,22.448c-38.424,15.562-69.422,38.416-92.134,67.928c-42.058,54.649-38.963,126.74,7.702,179.389
	l56.722,63.996c0,0.001,0.001,0.001,0.001,0.002c0,0,0,0,0,0l10.935,12.337c0.834,0.939,1.764,2.021,2.797,3.221
	c5.478,6.361,13.998,16.256,26.202,26.444c0.255,0.238,0.519,0.461,0.799,0.657c10.681,8.811,24.113,17.789,40.73,24.845
	c8.297,25.847,42.638,35.145,70.62,35.145s62.323-9.298,70.62-35.145c16.663-7.076,30.125-16.084,40.82-24.919
	c0.237-0.172,0.464-0.359,0.683-0.561c12.219-10.196,20.747-20.1,26.229-26.466c1.033-1.2,1.963-2.281,2.796-3.221l10.928-12.329
	c0.002-0.003,0.006-0.006,0.008-0.009c0.009-0.01,0.016-0.019,0.025-0.029l37.384-42.178c0.001-0.002,0.003-0.003,0.004-0.004
	c0.006-0.006,0.011-0.013,0.016-0.019l19.294-21.768C501.525,244.962,504.62,172.871,462.562,118.223z M424.355,309.416
	l-13.286,14.989c-0.241-6.932-1.583-14.32-4.045-22.152c-5.342-16.99-15.79-35.663-31.057-55.501
	c-13.711-17.815-32.394-31.599-55.53-40.969c-22.022-8.92-47.049-13.442-74.384-13.442s-52.361,4.522-74.384,13.442
	c-23.137,9.37-41.819,23.153-55.53,40.969c-15.267,19.837-25.716,38.511-31.057,55.501c-2.462,7.832-3.805,15.22-4.045,22.152
	l-12.361-13.946c-31.071-35.06-28.694-76.397,7.066-122.861c34.876-45.317,95.36-70.274,170.312-70.274
	s135.436,24.957,170.312,70.274c14.523,18.872,23.727,37.041,27.354,54.003C449.043,266.508,442.709,288.691,424.355,309.416z
	 M307.605,416.624c-2.354,0.936-4.076,2.995-4.581,5.477c-3.814,18.761-31.361,27.158-56.971,27.158
	c-25.306,0-52.488-8.207-56.809-26.503c-0.032-0.285-0.076-0.572-0.142-0.858c-0.431-1.869-0.648-3.89-0.648-6.006
	c0-23.305,25.839-42.265,57.6-42.265c11.854,0,23.25,2.649,32.956,7.663c3.679,1.9,8.204,0.458,10.105-3.223
	c1.9-3.68,0.458-8.204-3.223-10.105c-11.824-6.106-25.601-9.335-39.839-9.335c-38.287,0-69.725,23.503-72.394,53.176
	c-11.5-5.66-21.103-12.225-29.077-18.771c-2.634-3.803-2.728-7.967-2.649-14.779c0.011-0.951,0.021-1.907,0.021-2.869
	c0-29.014,43.712-72.051,104.099-72.051s104.099,43.037,104.099,72.051c0,0.964,0.011,1.922,0.022,2.874
	c0.079,6.808-0.015,10.97-2.646,14.771C337.164,401.536,324.067,410.085,307.605,416.624z M375.975,363.998
	c-0.874,0.987-1.853,2.122-2.938,3.383c-2.21,2.567-4.823,5.597-7.878,8.906c-0.002-0.301-0.007-0.6-0.007-0.902
	c0-19.279-12.79-40.982-34.213-58.056c-23.462-18.697-53.608-28.995-84.886-28.995s-61.424,10.298-84.886,28.995
	c-21.423,17.073-34.213,38.776-34.213,58.056c0,0.302-0.005,0.601-0.007,0.902c-3.056-3.309-5.669-6.34-7.879-8.906
	c-1.085-1.261-2.063-2.396-2.938-3.383l-10.955-12.36c-23.652-26.728,4.162-71.452,22.851-95.737
	c24.101-31.314,66.017-48.56,118.027-48.56s93.927,17.245,118.027,48.56c18.683,24.279,46.487,68.987,22.869,95.716L375.975,363.998
	z M458.386,238.464c-4.098-19.165-14.236-39.356-30.135-60.015c-19.146-24.877-45.264-44.138-77.63-57.246
	c-30.933-12.528-66.114-18.88-104.568-18.88s-73.636,6.352-104.568,18.88c-32.366,13.108-58.484,32.369-77.63,57.246
	c-18.657,24.242-29.197,48.071-31.326,70.825c-0.519,5.551-0.536,11.014-0.059,16.384c-25.691-43.87-23.007-96.75,8.96-138.287
	c41.948-54.507,114.618-84.524,204.623-84.524s162.675,30.018,204.622,84.524c31.706,41.197,34.611,93.554,9.591,137.211
	C460.912,256.097,460.293,247.385,458.386,238.464z"/>
<g>
</g>
<g>
</g>
<g>
</g>
<g>
</g>
<g>
</g>
<g>
</g>
<g>
</g>
<g>
</g>
<g>
</g>
<g>
</g>
<g>
</g>
<g>
</g>
<g>
</g>
<g>
</g>
<g>
</g>
</svg>
